<svg xmlns="http://www.w3.org/2000/svg" xmlns:xlink="http://www.w3.org/1999/xlink" width="450" height="450"><style><![CDATA[.B{fill:none}.C{stroke-miterlimit:10}.D{fill:#313637}.E{stroke:#f2f2f2}.F{stroke-linejoin:round}.G{fill:#f8fafd}.H{fill:#fbb018}.I{fill:#d1d2d3}.J{fill:#cbe9fa}.K{fill:#84d2f6}.L{fill:#aa2323}.M{fill:#f9a479}.N{stroke-linecap:round}.O{clip-path:url(#L)}]]></style><path d="M378.01 173.428l-63.563 20.663c-2.796.91-5.8-.62-6.708-3.417l-11.977-36.844c-.91-2.796.62-5.8 3.417-6.708l63.563-20.662c2.796-.91 5.8.62 6.708 3.417l11.978 36.844c.908 2.795-.622 5.8-3.418 6.707z" class="H"/><g fill="#414142"><path d="M373.85 143.366l-73.687 23.95-3.108-9.562 73.687-23.95z"/><circle cx="369.181" cy="166.115" r="4.214"/></g><path fill="#e7e7e7" d="M135.272 184.26l-49.818 50.495-68.286-67.37L60.266 123.7l12.664-.948z"/><path fill="#a6a8ac" d="M60.266 123.7l5.943 5.864 6.72-6.812z"/><g class="I"><path d="M29.1 170.5l13.995-14.186L57.3 170.3l-13.995 14.186zm19.147-17.927l19.186-19.448 1.747 1.723-19.186 19.448z"/><use xlink:href="#B"/><use xlink:href="#B" x="3.663" y="3.605"/><path d="M59.214 163.375l19.187-19.45 1.747 1.723L60.96 165.1zm-10.656 26.298l13.995-14.186L76.74 189.48l-13.995 14.186z"/><use xlink:href="#B" x="15.805" y="15.582"/><use xlink:href="#C"/><use xlink:href="#B" x="23.11" y="22.788"/><use xlink:href="#C" x="7.302" y="7.214"/><path d="M68.004 208.86L82 194.675l14.186 13.995L82.2 222.856z"/><use xlink:href="#B" x="35.254" y="34.765"/><use xlink:href="#C" x="19.444" y="19.192"/><use xlink:href="#B" x="42.56" y="41.975"/><use xlink:href="#B" x="46.2" y="45.577"/></g><path d="M136.053 178.955l-54.182 45.78-61.9-73.272 46.873-39.605 12.697.203z" class="G"/><path fill="#a6a8ac" d="M66.834 111.858l5.39 6.378 7.308-6.175z"/><g class="I"><path d="M31.562 155.637l15.22-12.86 12.86 15.22-15.22 12.86z"/><use xlink:href="#D"/><path d="M55.568 143.43L76.435 125.8l1.584 1.874-20.867 17.632z"/><use xlink:href="#D" x="6.623" y="7.838"/><use xlink:href="#E"/><path d="M49.195 176.5l15.22-12.86 12.86 15.22-15.22 12.86z"/><use xlink:href="#E" x="7.697" y="9.11"/><use xlink:href="#E" x="11.01" y="13.027"/><use xlink:href="#E" x="14.31" y="16.947"/><path d="M79.82 172.14l20.866-17.632 1.584 1.874-20.866 17.632zm-12.993 25.226l15.22-12.862 12.86 15.22-15.22 12.862z"/><use xlink:href="#D" x="35.261" y="41.732"/><use xlink:href="#D" x="38.573" y="45.651"/><use xlink:href="#E" x="31.95" y="37.813"/><use xlink:href="#E" x="35.263" y="41.733"/></g><path d="M61.414 170.695l-6.637-11.458c-1.813-3.132-.745-7.14 2.387-8.955l42.724-24.745c3.132-1.814 7.14-.745 8.955 2.387l47.1 81.34c1.813 3.132.745 7.14-2.387 8.955l-54.064 31.314c-3.132 1.813-7.142.744-8.955-2.387l-33.905-58.542c-1.814-3.132-.746-7.14 2.386-8.955h0c3.13-1.814 4.2-5.823 2.386-8.955z" class="H"/><path opacity=".3" stroke="#fff" stroke-width=".35" d="M153.36 212.658l-57.753 33.448-35.086-60.58 3.03-1.755c4.46-2.583 5.98-8.293 3.398-12.753l-9.357-16.156 46.646-27.017 49.122 84.813z" class="B C"/><path opacity=".2" fill="#fff" d="M138.833 209.342h0a4.03 4.03 0 0 0 1.466-5.501L104.51 142.05c-1.114-1.924-3.577-2.58-5.5-1.466h0c-1.924 1.114-2.58 3.577-1.466 5.5l35.788 61.792c1.114 1.924 3.577 2.58 5.5 1.467z"/><path d="M214.47 54.867a9.67 9.67 0 0 0 .261-2.228 9.82 9.82 0 0 0-9.815-9.815 9.76 9.76 0 0 0-4.069.891c-.397-3.613-3.457-6.425-7.177-6.425-3.064 0-5.678 1.912-6.727 4.606-.64-.158-1.308-.25-1.997-.25-3.245 0-6.05 1.863-7.418 4.575l-.896-.045c-5.04 0-9.188 3.8-9.746 8.692h47.584z" class="J"/><path d="M193.668 37.3c-.848 0-1.66.15-2.415.42 2.56.9 4.458 3.214 4.765 6.005a9.76 9.76 0 0 1 4.069-.891c.204 0 .403.02.604.03a7.22 7.22 0 0 0-7.023-5.565zm11.246 5.534c-.832 0-1.634.117-2.403.314 4.246 1.08 7.392 4.918 7.392 9.5a9.74 9.74 0 0 1-.26 2.228h4.827a9.67 9.67 0 0 0 .261-2.228 9.82 9.82 0 0 0-9.816-9.815z" class="K"/><g class="J"><path d="M200.845 43.715c.53-.242 1.1-.43 1.666-.577a9.74 9.74 0 0 0-1.82-.283 7.12 7.12 0 0 1 .154.86zM164.95 54.867l.06-1.187c0-6.333-5.1-11.47-11.4-11.56-1.67-2.478-4.263-4.274-7.258-4.897a11.57 11.57 0 0 0-11.509-10.403c-5.2 0-9.6 3.434-11.055 8.157a11.57 11.57 0 0 0-3.116-.437c-5.28 0-9.727 3.542-11.112 8.378-1.75-1.067-3.8-1.692-6.002-1.692a11.57 11.57 0 0 0-11.567 11.567 11.59 11.59 0 0 0 .196 2.073h72.763z"/><path d="M118.023 34.978l.047-.134-.31.07.264.064z"/></g><path d="M153.6 42.122c-1.67-2.478-4.263-4.274-7.258-4.897a11.57 11.57 0 0 0-11.509-10.403c-1.002 0-1.973.13-2.9.37a11.57 11.57 0 0 1 8.644 10.034c2.995.624 5.587 2.42 7.258 4.897 6.31.1 11.4 5.227 11.4 11.56 0 .4-.02.796-.06 1.187h5.766c.04-.4.06-.786.06-1.187 0-6.334-5.1-11.47-11.4-11.56z" class="K"/><path d="M100.68 41.603c1.1.3 2.158.735 3.114 1.317.164-.573.375-1.126.62-1.66l-.857-.033a11.48 11.48 0 0 0-2.878.375z" class="J"/><path fill="#fff" d="M196.42 63.175c.066-.384.107-.776.107-1.178h0a6.96 6.96 0 0 0-6.955-6.956h-4.614c.076-.51.13-1.026.13-1.557 0-5.307-3.977-9.677-9.1-10.315-1.752-6.422-7.624-11.146-14.602-11.146-7.172 0-13.175 4.99-14.737 11.684-1.104-.398-2.288-.627-3.53-.627-5.745 0-10.403 4.658-10.403 10.404 0 .53.052 1.048.13 1.557h-4.12c-3.84 0-6.955 3.114-6.955 6.956h0c0 .402.04.794.107 1.178h74.552z"/><path d="M175.977 43.17c-1.752-6.422-7.624-11.146-14.602-11.146-.628 0-1.243.05-1.85.125a15.14 15.14 0 0 1 12.748 11.02 10.4 10.4 0 0 1 9.11 10.315c0 .53-.053 1.048-.13 1.557h3.703c.076-.5.13-1.026.13-1.557a10.4 10.4 0 0 0-9.109-10.314zm16.847 18.827h0a7.04 7.04 0 0 1-.107 1.178h3.703c.066-.384.107-.776.107-1.178h0a6.96 6.96 0 0 0-6.955-6.956h-3.704c3.842 0 6.956 3.114 6.956 6.956z" class="K"/><path d="M342.946 330.185H113.663a8.3 8.3 0 0 1-8.298-8.297v-144.7a8.3 8.3 0 0 1 8.298-8.297h229.283a8.3 8.3 0 0 1 8.298 8.297v144.7a8.3 8.3 0 0 1-8.298 8.297z" class="D"/><path fill="#68b3e3" d="M336.797 322.255H119.813c-4.337 0-7.853-3.35-7.853-7.482V184.3c0-4.132 3.516-7.48 7.853-7.48h216.984c4.337 0 7.853 3.35 7.853 7.48v130.47c-.001 4.133-3.516 7.483-7.853 7.483z"/><g class="D"><path d="M212.316 330.185V379.3h31.977v-49.105h-31.977zm15.99 36.77a10.42 10.42 0 0 1-10.417-10.416 10.42 10.42 0 0 1 10.417-10.418 10.42 10.42 0 0 1 10.417 10.418 10.42 10.42 0 0 1-10.417 10.416z"/><path d="M179.22 379.3h98.167v9.666H179.22z"/></g><g stroke="#aa2323" class="B C"><path d="M368.452 249.538h2.066"/><path stroke-dasharray="4.7738,4.7738" d="M375.29 249.538H392"/><path d="M394.387 249.538h2.065v-2.065"/><path stroke-dasharray="4.2013,4.2013" d="M396.452 243.27V77.318"/><path d="M396.452 75.218v-2.066h-2.065"/><path stroke-dasharray="4.1621,4.1621" d="M390.225 73.152h-156.08"/><path d="M232.063 73.152h-2.065"/></g><circle fill="#fff" cx="367.664" cy="249.706" r="5"/><circle cx="224.998" cy="73.152" r="5" class="L"/><path fill="#f9a97d" d="M181.938 219.478c4.01-1.603 9.06-2.685 12.266.21 1.677 1.513 2.414 3.788 2.95 5.98 1.072 4.374 1.623 8.855 2.136 13.33.753 6.57 1.428 13.22.577 19.778s-3.373 13.102-8.17 17.654c-1.143 1.086-2.464 2.076-4 2.377-1.118.22-2.272.063-3.4-.096l-11.563-1.617c-1.308-.182-2.633-.37-3.85-.88-1.767-.74-3.192-2.11-4.45-3.555-8.02-9.19-10.274-22.47-6.657-33.99 3.192-10.17 14.91-15.5 24.17-19.19z"/><path opacity=".3" fill="#d66734" d="M174.36 234.492l-4.833 2.1 4.833-.693v-2.06"/><path d="M174.36 134.22h115.298v150.34H174.36z" class="G"/><path d="M174.36 134.22h115.298v9.605H174.36z" class="D"/><circle fill="#f0645a" cx="281.914" cy="138.331" r="1.75"/><g fill="#e7e7e7"><circle cx="275.164" cy="138.331" r="1.75"/><circle cx="268.414" cy="138.331" r="1.75"/></g><g class="B E F"><path d="M207.26 408H76.997M288.22 111.795h-80.263m190.797 316.077H318.5" stroke-width="5" class="C N"/><circle stroke-width="2.5" cx="101.497" cy="375.456" r="3.833"/><g stroke-width="3"><circle cx="292.349" cy="93.885" r="4.693"/><circle cx="394.061" cy="401.319" r="4.693"/><circle cx="335.441" cy="26.821" r="4.693"/></g></g><circle cx="201.959" cy="173.833" r="19.193" class="L"/><g class="I"><use xlink:href="#F"/><use xlink:href="#F" y="12.555"/><use xlink:href="#F" y="25.09"/><use xlink:href="#G"/><use xlink:href="#G" y="18.91"/><use xlink:href="#G" y="37.82"/><use xlink:href="#G" y="56.73"/></g><g stroke="#595a5c" class="B C"><use xlink:href="#H"/><use xlink:href="#H" y="19.68"/><use xlink:href="#H" y="39.36"/><use xlink:href="#H" y="59.043"/></g><defs><path id="A" d="M336.797 322.255H119.813c-4.337 0-7.853-3.35-7.853-7.482V184.3c0-4.132 3.516-7.48 7.853-7.48h216.984c4.337 0 7.853 3.35 7.853 7.48v130.47c-.001 4.133-3.516 7.483-7.853 7.483z"/><path id="B" d="M51.9 156.165l19.187-19.45 1.746 1.723-19.187 19.45z"/><path id="C" d="M71.36 175.348l19.187-19.45 1.747 1.723-19.187 19.45z"/><path id="D" d="M52.257 139.512l20.867-17.632 1.584 1.874-20.867 17.632z"/><path id="E" d="M62.19 151.27l20.867-17.632 1.583 1.874-20.867 17.632z"/><path id="F" d="M229.998 161.345h48.416v5.86h-48.416z"/><path id="G" d="M205.16 205.345h73.254v5.86H205.16z"/><path id="H" d="M186.615 203.88h8.125v7.25h-8.125z"/><path id="I" d="M185.33 200.622l5.348 6.882 12.78-9.382"/><path id="J" d="M352.684 286.822v3.287h-1.816v-8.566h2.496c1.164 0 2.025.21 2.584.635s.838 1.068.838 1.932c0 .504-.14.95-.416 1.344s-.67.7-1.178.924l2.52 3.732h-2.016l-2.045-3.287h-.967zm0-1.476h.586c.574 0 .998-.096 1.27-.287s.4-.492.4-.902-.14-.695-.42-.867-.712-.258-1.298-.258h-.55v2.314z"/><path id="K" d="M364.923 290.11h-4.934v-8.566h4.934v1.488h-3.117v1.88h2.9v1.488h-2.9v2.21h3.117v1.5z"/></defs><clipPath id="L"><use xlink:href="#A"/></clipPath><g class="O"><path fill="#fbbd91" d="M174.77 269.958c-1.782-1.318-2.314-3.47-2.425-5.764-1.304 5.873-5.112 5.65-6.046 6.15l-.14.1c.034-.037.084-.07.14-.1 5.63-3.88 6.116-10.695 6.156-11.652.056-7.182-2.083-14.37-6.08-20.34-2.64-3.943-6.475-8.313-3.17-13.053.85-1.22 2.175-2 3.37-2.885 2.768-2.047 5.02-4.865 6.098-8.134.514-1.555 1.73-10.178-1.55-9.604-.536.094-.995.425-1.437.744-3.463 2.5-7.078 4.785-10.82 6.842-3.273 1.8-5.445 2.355-6.692 6.04-4.07 12.02-8.528 23.468-6.074 36.375 1.54 8.104-3.138 16.748-7.432 23.79-.726 1.19-1.528 2.38-1.82 3.744 6.222 7.352 12.773 14.766 20.647 20.31 2.906-4.016 5.847-8.07 9.6-11.322 3.334-2.895 3.598-4.48 7.45-6.64v-7.104l.23-7.498z"/><path fill="#f4cdb4" d="M162.42 215.696c.06.09.126.187.228.225.134.05.28-.016.405-.08 1.306-.663 2.57-1.404 3.786-2.22.545-.365 1.087-.75 1.503-1.26.586-.715.883-1.627 1.04-2.54.235-1.354.184-2.754-.137-4.09l-8.286 5.343c.06 1.66.748 3.507 1.46 4.618z"/><g fill="#f9a97d"><path d="M160.043 216.833c-.64-.495-.843-2.585-.94-3.336-.058-.443-.084-.88-.087-1.317l-.146.082-.63.34c-.047 1.6.596 3.3 1.804 4.232zm-1.81 0c-.64-.495-.843-2.585-.94-3.336l-.04-.382-.775.408c.17 1.304.78 2.555 1.757 3.3z"/><path opacity=".4" d="M152.746 258.76c-.152-7.623-4.374-14.43-5.785-21.808l-.206-1.064c-1.36 6.063-1.897 12.237-.652 18.788 1.54 8.104-3.138 16.748-7.432 23.79-.726 1.19-1.528 2.38-1.82 3.744l3.047 3.56c1.145-1.38 2.193-2.86 3.217-4.32 4.798-6.85 9.798-14.33 9.63-22.7z"/><path d="M158.373 226.025c1.7-.195 3.458-.5 5.083-1.048a6.8 6.8 0 0 1 .73-.76l-.976.367c-1.732.797-3.562 1.33-5.463 1.5l.627-.07zm.193 75.027l1.713-2.303c-.52-.617-1.062-1.207-1.648-1.758-4.482-4.2-9.284-8.37-12.943-13.352l9.927 13.5 2.95 3.903z"/></g><path d="M134.867 273.22s8.888 18.77 25.412 31.063c.256.723-2.924 5.418-2.924 5.418s-21.042-13.03-28.272-32c.723-1.98 5.784-4.48 5.784-4.48z" class="G"/><path fill="#4e4e4e" d="M127.637 273.22s3.254 20.096 37.605 38.02c-1.418-.963-36.16 46.754-36.16 46.754l-53.41-42.387 51.963-42.387z"/><path opacity=".1" d="M148.985 301.052h-2.793L96.7 332.302l32.373 25.69s34.74-47.717 36.16-46.754c-6.456-3.37-11.812-6.814-16.257-10.187h0z" class="D"/><circle fill="#ffcf57" cx="151.612" cy="313.487" r="3.787"/><path d="M288.532 221.943c.965 1.26 1.62 2.726 2.244 4.186l3.383 8.5c1.123 3.057 2.167 6.173 2.543 9.407.244 2.102.204 4.223.163 6.336l-.54 27.78c-1.38-1.643-2.19-3.678-2.948-5.686-3.79-10.027-6.874-20.322-9.222-30.783-.766-3.413-1.458-6.856-2.646-10.146-.8-2.21-1.816-4.336-2.83-6.456l-4.728-9.824c2.276-.84 4.825 1 6.95 1.792 2.873 1.072 5.718 2.386 7.632 4.885z" class="M"/><path fill="#e67a44" d="M248.5 224.164c.624.51 1.407.917 1.803 1 1.487.348 2.88-1.012 4.25-1.353.88-.22 1.794-.263 2.7-.307l6.4-.307c.287-.014.59-.025.847.102.275.135.455.403.628.655a19.22 19.22 0 0 0 2.853 3.288c.36.332.75.674.9 1.142.24.753-.213 1.527-.568 2.232a10.05 10.05 0 0 0-.965 5.919c.047.322.108.658.01.97-.127.395-.483.66-.804.925-2.18 1.79-3.463 4.626-3.368 7.446a19.59 19.59 0 0 0 8.712-1.527c1.528-.648 3.003-1.52 4.06-2.8 1.198-1.452 1.774-3.337 1.947-5.214s-.03-3.762-.23-5.635c-.188-1.742-.388-3.527-1.162-5.1-.76-1.542-2.032-2.786-3.456-3.748-1.95-1.318-4.198-2.15-6.5-2.646-4.038-.868-8.46-1.38-12.313.282l-6.076 2.62c-.182.078-.374.166-.475.336-.313.53.166 1.178.817 1.71z"/><path d="M270.066 237.268c-.007-1-.212-2.036.058-3.007.326-1.173 1.277-2.044 2.026-3.003.147-.188.294-.398.3-.637.005-.207-.098-.398-.196-.58-2.03-3.72-1.99-7.425-6.602-8.792-4.715-1.397-10.422-.503-15.304-.394-1.595.036-3.474-.224-3.843-2.193-.023-.124-.035-.255.014-.37.054-.125.17-.21.284-.28.8-.495 1.76-.627 2.67-.873 2.483-.67 4.73-1.695 7.274-2.183l11.858-2.273c.562-.107 1.145-.215 1.7-.08.578.142 1.06.53 1.52.907l6.503 5.34c1.546 1.27 3.155 2.625 3.868 4.493.604 1.584.486 3.34.384 5.032a169.16 169.16 0 0 0-.073 19.147c.097 1.842.18 4.137-1.114 5.625-2.432 2.8-9.44.428-12.083-1.102-3.58-2.07-4.795-5.617-2.208-9.05 1.185-1.57 2.692-3.08 2.93-5.03a5.43 5.43 0 0 0 .036-.699z" class="M"/><path fill="#fbbd91" d="M297.48 264.937c-.71-7.367-1.09-14.426-2.484-21.695-.023-.123.2 1.72.226 1.594.484-2.39-.263-4.874-1.39-7.036s-2.633-4.104-3.83-6.23c-2.826-5.014-3.87-10.9-6.8-15.843-.706-1.194-1.563-2.366-2.787-3.017-.97-.516-2.087-.662-3.178-.798l-10.96-1.375c-2.39-.3-4.797-.6-7.203-.47-3.773.203-7.192 1.24-10.854.306-.757-.193-1.49.582-1.526 1.362s.41 1.498.9 2.104a11.54 11.54 0 0 0 7.159 4.106c2.032.3 4.12.067 6.148.397 1.807.293 3.507 1.03 5.177 1.777a264 264 0 0 1 8.884 4.175c.952.47 2.017 1.095 2.175 2.145.142.944-.52 1.795-1.076 2.572a15.43 15.43 0 0 0-2.262 12.884c.643 2.313-2.165 3.117-4.11 3.447-2.14.365-3.42-1-4.54-2.826-2-3.24-2.784-7.062-3.934-10.692-.048-.248-.166-.502-.252-.74-.676-1.868-1.55-3.68-2.565-5.384-.562-.943-1.176-1.86-1.87-2.71-1.418-1.74-3.776-2.387-5.867-1.625-1.276.465-2.255 1.547-2.862 2.762-1.335 2.666-.546 5.248-.075 8.012l.816 4.888c.553 3.382 1.324 6.77 2.817 9.873 2.372 4.928 3.693 9.86 5.14 15.016 1.522 5.43 5.028 10.72 8.05 15.414 6.328 9.834 13.883 18.957 18.782 29.652 2.644 5.77 4.438 11.88 5.858 18.053.593 2.58 1.515 15.533 3.987 16.277 1.13.34 3.92-2.04 5.013-2.457 2.96-1.123 6.37-1.61 9.458-2.303 1.952-.436 17.66-4.71 18.517-3.438-13.268-19.75-26.358-44.172-28.678-68.177z"/><path d="M247.77 227.764s-.488-7.25 7.36-3.662c.302.1 1.947 5.457 1.852 6.764-.202-.4-3.2 2.645-7.318 2.96-.12.16-1.893-6.063-1.893-6.063zm1.8-15.7c1.7.54 3.547.676 5.318.394l-.428-1.902c-1.875.214-3.723.33-5.627-.05.074.593.196 1.165.4 1.388.085.1.207.132.326.17z" fill="#f4cdb4"/><path d="M256.618 213.175a16.6 16.6 0 0 1-.08-2.872l-.445.054c.088.953.26 1.898.525 2.818zm1.432-1.015c-.07-.676.006-1.355.112-2.028l-.372.034.001.24c.044.6.13 1.176.26 1.754zm1.8 6.063l1.098-.765c.615-.434 1.238-.875 1.717-1.456-.787.95-2.633 1.65-3.8 2.163l.974.058zm10.463 3.845c.9-.273 1.775-.634 2.646-.998-1.07.442-2.163.65-3.293.7l.647.297zm8.47-5.7c-.218-1.4-.133-2.814.122-4.196l-.687-.128c-.312 1.567.335 2.84.565 4.324z" fill="#f9ab7b"/><path d="M266.105 243.866a34.8 34.8 0 0 1 .553 8.828c.303-2.654.408-5.377.228-8.063-.277-.218-.535-.476-.78-.765z" class="M"/><path d="M283.467 227.34c-2.333-.364-4.622-1-6.813-1.883.246.28.424.604.48.983a1.83 1.83 0 0 1-.025.653c2.068.55 4.255.65 6.357.247zm-24.815 4.787c-2.4 1.64-5.224 2.896-8.1 3.342 1.202-.625 1.994-1.248 3.342-1.6 1.518-.394 3.448-.844 4.76-1.742zm-7.422 4.6c1.337.314 2.754.322 4.075-.05 1.28-.36 2.556-1.104 3.366-2.176-.997.567-2.14.832-3.183 1.3-1.34.614-2.805.78-4.258.916z" fill="#f9ab7b"/><path d="M271.322 292.347v4.893s29.442-6.887 33.78-13.6c-.482.277-2.893-3.82-2.893-3.82s-2.97 6.976-30.888 12.527z" class="G"/><path fill="#4e4e4e" d="M310.646 278.62s-13.52 14.455-45.804 19.877c-.11.363 15.218 54.95 15.218 54.95l58.784-21.87c-.362-.543-28.198-52.957-28.198-52.957z"/><g class="D"><path opacity=".1" d="M310.435 342.407L290.97 291.46c-3.433 1.912-11.222 3.89-17.407 5.262-2.74.66-5.645 1.26-8.72 1.775-.11.363 15.218 54.95 15.218 54.95l30.374-11.04z"/><path d="M235.737 209.4s33.97 14.272 65.87 38.06c.207.55 1.242 3.295-3.52 4.574-.207.183-52.198-32.02-62.348-42.633z"/></g><path fill="#989898" d="M235.737 209.4s2.92 2.827 5.6 4.898c.03.025 1.998.176 1.646-1.624l-7.246-3.274z"/><path d="M235.737 209.4l2.414 2.228s.956-.02.853-.8c-.04.028-3.267-1.43-3.267-1.43zm48.89 26.3c-.467 1.673-1.573 3.6-3.97 5.52l.52.332c2.346-1.9 3.488-3.812 4.003-5.497l-.553-.356z" fill="#151515"/><path opacity=".2" d="M245.58 214.707s27.445 13.906 36.87 21.408c0 .274-.933 1.28-.933 1.28l-35.937-22.7zm39.6 24.838l14.567 10.294s1.452-.496 1-1.922c.078-.068-15.224-9.743-15.224-9.743l-.353 1.37z" fill="#f2f2f2"/><circle fill="#ffcf57" cx="277.737" cy="306.31" r="3.787"/></g><path d="M310.646 278.62s-5.13.27-7.68 2.428c-.134-.2 2.138 2.592 2.138 2.592l5.543-5.02zm-45.803 19.877s1.304-3.54 6.48-4.375c0-.25 0 3.117 0 3.117l-6.48 1.258zM127.637 273.22s2.443-.246 3.653 2.15c-.027.02-1.776 1.23-2.207 2.33 0 0-1.4-3.277-1.446-4.48zm32.39 32s5.376 3.385 5.214 6.02l-6.62-3.7c.235-.183 1.406-2.32 1.406-2.32z" class="D"/><g stroke-width="3" stroke="#43b86f" class="B C"><use xlink:href="#I"/><use xlink:href="#I" y="19.758"/><use xlink:href="#I" y="39.518"/><path d="M185.33 259.897l5.348 6.88 12.78-9.38"/></g><path d="M369.874 314.187l48.374 17.72-12.935 14.62zM352.8 324.894l11.667 22.683-11.667 1.63z" class="H"/><path d="M95.52 327.634L65.803 354.32 57.6 344zm-2.45-6.14l-28.73 6.994-1.397-12.465zM413.6 305.4h-70.893c-10.615 0-19.22-8.605-19.22-19.22h0c0-10.615 8.605-19.22 19.22-19.22H413.6c10.615 0 19.22 8.605 19.22 19.22h0c0 10.615-8.605 19.22-19.22 19.22z" class="L"/><g class="G"><use xlink:href="#J"/><use xlink:href="#K"/><path d="M371.162 285.3h3.398v4.44c-.55.18-1.07.305-1.556.377a10.17 10.17 0 0 1-1.491.109c-1.293 0-2.28-.38-2.962-1.14s-1.022-1.85-1.022-3.27c0-1.383.396-2.46 1.187-3.234s1.888-1.16 3.3-1.16a6.37 6.37 0 0 1 2.543.527l-.604 1.453c-.625-.313-1.275-.47-1.95-.47-.785 0-1.414.264-1.887.8s-.7 1.236-.7 2.127c0 .93.2 1.64.57 2.13s.935.736 1.66.736c.38 0 .764-.04 1.154-.117V286.8h-1.623v-1.5zm6.638 4.8v-8.566h1.816v8.566H377.8zm10.228-2.38c0 .773-.278 1.383-.835 1.828s-1.33.668-2.323.668c-.914 0-1.723-.172-2.426-.516v-1.688c.578.258 1.067.44 1.468.545s.767.158 1.1.158c.398 0 .704-.076.917-.23s.32-.38.32-.68a.75.75 0 0 0-.141-.449c-.094-.13-.23-.256-.413-.377s-.552-.314-1.1-.58c-.523-.246-.916-.482-1.178-.7a2.83 2.83 0 0 1-.627-.79 2.26 2.26 0 0 1-.234-1.055c0-.758.257-1.354.77-1.787s1.224-.65 2.13-.65c.445 0 .87.053 1.274.158a8.79 8.79 0 0 1 1.269.445l-.586 1.412c-.457-.188-.835-.318-1.134-.393a3.61 3.61 0 0 0-.882-.11c-.344 0-.607.08-.8.24a.79.79 0 0 0-.275.627.78.78 0 0 0 .11.418c.073.118.192.234.354.346s.546.313 1.15.602c.8.383 1.35.766 1.646 1.15s.446.86.446 1.418zm6.058 2.38h-1.816v-7.055h-2.326v-1.512h6.47v1.512h-2.326v7.055z"/><use xlink:href="#K" x="38.941"/><use xlink:href="#J" x="55.984"/></g><path stroke-width="5" d="M344.65 48.846h78.015" class="B C E F N"/></svg>